<svg width="512.001" height="512" xmlns="http://www.w3.org/2000/svg">

 <g>
  <title>background</title>
  <rect fill="none" id="canvas_background" height="402" width="582" y="-1" x="-1"/>
 </g>
 <g>
  <title>Layer 1</title>
  <path id="svg_3" fill="#ff8000" d="m413.82863,330.003908l-319.99219,0c-51.82422,0 -93.83594,-42.01172 -93.83594,-93.83594l0,-4.33594c0,-27.52343 22.3125,-49.83593 49.83594,-49.83593l412.32812,0c27.52344,0 49.83594,22.3125 49.83594,49.83593c0,54.21875 -43.95312,98.17188 -98.17187,98.17188zm0,0"/>
  <path id="svg_4" fill="#e37100" d="m462.16406,181.996098l-412.32812,0c-27.52344,0 -49.83594,22.3125 -49.83594,49.83593l0,4.33594c0,1.88672 0.0625,3.76172 0.17188,5.6211c2.02734,-25.66407 23.48046,-45.86329 49.66406,-45.86329l355.23437,0c20.52735,0 37.45703,16.44532 37.63282,36.96875l0,0.44141c0,53.39062 -43.27735,96.66797 -96.66797,96.66797l69.29687,0c50.89844,0 92.60547,-39.33203 96.39063,-89.26172c0.03515,0.34766 0.07812,0.69531 0.10547,1.04688c0.10937,-1.85938 0.17187,-3.73438 0.17187,-5.6211l0,-4.33594c0,-27.52343 -22.3125,-49.83593 -49.83594,-49.83593zm0,0"/>
 </g>
</svg>