<svg id="Layer_1" enable-background="new 0 0 517.382 517.382" height="512" viewBox="0 0 517.382 517.382" width="512" xmlns="http://www.w3.org/2000/svg"><path d="m76.738 172.954-23.795-21.152c-18.424-16.378-12.157-46.566 11.264-54.257l230.755-75.78c57.553-18.9 119.72 11.271 140.482 68.178 22.439 61.505-12.322 129.368-75.82 146.749l-32.495 8.895c-44.872 12.283-92.865-1.087-124.923-34.801-12.006-12.626-28.581-20.973-47.006-22.48l-52.63-4.304c-9.582-.784-18.648-4.662-25.832-11.048z" fill="#fff9f3"/><path d="m435.444 89.943c-.48 0-15.761-54.484-77.775-70.319-69.424 3.149-137.609 32.561-188.425 87.39l-70.845 76.439c3.018.539-.4.176 56.8 4.853 17.898 1.463 34.632 9.466 47.006 22.479 32.059 33.714 80.051 47.084 124.923 34.802l32.495-8.895c63.324-17.334 98.322-85.073 75.821-146.749z" fill="#feebd3"/><path d="m235.493 134.715-55.673 60.069c15.462 7.125 21.817 16 22.384 16 32.059 33.714 80.051 47.084 124.923 34.802l32.495-8.895c66.952-18.326 101.614-92.575 72.007-155.914-68.193-20.072-144.761-1.494-196.136 53.938z" fill="#fedfbc"/><path d="m92.792 500.01-40.252-9.028c-31.167-6.99-43.024-45.138-21.312-68.564l213.921-230.814c53.354-57.567 142.759-62.42 202.031-10.966 64.06 55.61 67.288 154.354 6.241 213.933l-31.241 30.49c-43.14 42.103-105.927 57.094-163.435 39.02-21.536-6.768-45.564-5.818-67.392 4.047l-62.349 28.178c-11.349 5.13-24.059 6.43-36.212 3.704z" fill="#fedfbc"/><path d="m447.18 180.638c-59.272-51.454-148.677-46.601-202.031 10.967l-154.91 167.142c5.483 5.161 12.443 9.038 20.666 10.881l43.09 9.665c13.01 2.917 26.616 1.526 38.766-3.965l66.746-30.166c22.699-10.258 48.38-11.801 72.144-4.332.1 0 87.015 32.014 164.528-32.404 10.11-81.974-48.761-127.313-48.999-127.788z" fill="#feebd3"/><path d="m484.792 231.391c-41.694-94.008-167.893-117.203-239.643-39.786l-83.48 90.072 36.488-16.491c29.217-13.204 62.272-15.189 92.859-5.576 2.028.001 97.16 36.979 193.776-28.219z" fill="#fff3e5"/><path d="m448.718 182.012c-57.728-51.515-144.634-48.528-198.749 4.636 66.116 20.639 135.862 18.246 198.749-4.636z" fill="#fff9f3"/><path d="m452.985 164.654c29.148-99.252-65.251-190.196-163.016-158.09l-230.754 75.779c-35.135 11.538-44.575 56.816-16.902 81.416l23.794 21.152c9.716 8.638 22.202 13.978 35.157 15.037l52.63 4.304c13.998 1.145 27.038 7.38 36.716 17.558.8.841 1.619 1.656 2.436 2.475l-173.553 187.257c-30.091 32.468-13.703 85.353 29.546 95.053 42.496 9.531 45.377 10.787 56.231 10.787 10.409 0 20.809-2.195 30.325-6.495l62.349-28.179c17.644-7.974 37.533-9.167 56.006-3.363 62.954 19.787 131.773 3.656 179.407-42.834l31.241-30.49c69.346-67.681 63.74-180.707-11.613-241.367zm-296.482 7.705-52.63-4.304c-12.118-.992-15.452-6.124-40.299-28.212-9.196-8.175-6.092-23.249 5.625-27.098l230.754-75.779c69.611-22.856 138.421 37.761 124.67 109.357-62.197-31.503-140.794-19.992-191.209 34.406l-18.593 20.062c-17.098-17.49-36.296-26.632-58.318-28.432zm285.743 210.761-31.241 30.49c-38.986 38.05-95.492 51.542-147.462 35.207-25.982-8.165-53.96-6.486-78.778 4.73l-62.349 28.179c-8.135 3.676-17.412 4.623-26.123 2.671l-40.252-9.027c-19.121-4.289-26.416-27.685-13.079-42.076l213.921-230.813c47.485-51.234 126.997-55.603 179.808-9.761 56.904 49.4 60.109 137.157 5.555 190.4z"/><path d="m335.288 320.094h-93.044c-8.836 0-16 7.163-16 16s7.164 16 16 16h93.044c8.836 0 16-7.163 16-16s-7.163-16-16-16z"/><path d="m368.187 226.298h-32.847c-8.836 0-16 7.163-16 16s7.164 16 16 16h32.847c8.836 0 16-7.163 16-16s-7.164-16-16-16z"/></svg>