<svg height="511pt" viewBox="0 -2 511.99826 511" width="511pt" xmlns="http://www.w3.org/2000/svg"><path d="m177.074219 80.195312-23.113281 90.15625 53.378906 13.117188 23.121094-90.191406c.871093-3.542969 4.117187-6.03125 7.761718-5.828125 16.148438.894531 31.113282-10.207031 34.296875-26.886719 3.296875-17.28125-7.980469-34.472656-25.128906-38.402344-9.210937-2.109375-18.425781-.140625-25.738281 4.738282-2.316406 1.546874-5.460938.90625-6.785156-1.542969-4.84375-8.960938-13.773438-15.660157-24.996094-17.109375-16.054688-2.074219-31.523438 8.199218-35.921875 23.78125-4.570313 16.195312 3.3125 32.558594 18.898437 39.378906 3.363282 1.46875 5.105469 5.222656 4.226563 8.789062zm0 0" fill="#fef1da"/><path d="m216.636719 147.207031-9.300781 36.265625-53.371094-13.117187 9.484375-36.988281c3.632812.1875 7.273437.726562 10.886719 1.617187 9.363281 2.292969 19.246093 4.71875 28.617187 7.027344 4.824219 1.183593 9.414063 2.941406 13.683594 5.195312zm0 0" fill="#fde6bf"/><path d="m404.007812 159.148438-63.957031 67.617187 40.304688 37.371094 63.984375-67.640625c2.480468-2.675782 6.527344-3.273438 9.613281-1.332032 13.683594 8.617188 32.160156 6.171876 43.035156-6.867187 11.269531-13.507813 9.75-34.011719-3.335937-45.769531-7.027344-6.316406-16.042969-9.066406-24.804688-8.347656-2.777344.230468-5.214844-1.855469-5.183594-4.644532.113282-10.179687-4.445312-20.375-13.554687-27.085937-13.03125-9.605469-31.542969-8.128907-42.949219 3.359375-11.859375 11.945312-12.902344 30.074218-2.582031 43.605468 2.226563 2.917969 1.925781 7.042969-.570313 9.734376zm0 0" fill="#fef1da"/><path d="m405.363281 237.707031-25.003906 26.429688-40.3125-37.367188 25.53125-27c3.09375 1.945313 6.039063 4.191407 8.78125 6.734375 7.046875 6.539063 14.492187 13.4375 21.550781 19.984375 3.652344 3.382813 6.816406 7.15625 9.453125 11.21875zm0 0" fill="#fde6bf"/><path d="m154.886719 463.953125c53.503906 50.140625 137.519531 47.136719 187.3125-6.566406 38.589843-41.621094 31.605469-104.035157 51.523437-155.136719 8.097656-20.777344 2.183594-44.417969-14.171875-59.582031-6.574219-6.09375-13.511719-12.527344-20.082031-18.617188-16.246094-15.058593-40.132812-19.105469-60.0625-9.441406-52.5 25.464844-117.136719 18.289063-157.859375 71.097656-41.617187 53.964844-36.386719 131.648438 13.339844 178.246094zm0 0" fill="#ffc265"/><path d="m393.722656 302.253906c-19.921875 51.097656-12.933594 113.519532-51.519531 155.128906-29.804687 32.148438-71.875 46.132813-112.328125 41.410157 30.171875-3.519531 59.277344-17.394531 81.542969-41.410157 38.589843-41.609374 31.613281-104.035156 51.523437-155.128906 8.105469-20.777344 2.1875-44.425781-14.171875-59.585937-6.566406-6.097657-13.515625-12.523438-20.082031-18.613281-6.308594-5.851563-13.773438-10.042969-21.71875-12.40625 18.164062-5.542969 38.269531-.789063 52.5 12.40625 6.570312 6.089843 13.503906 12.515624 20.082031 18.613281 16.351563 15.160156 22.269531 38.808593 14.171875 59.585937zm0 0" fill="#ffb541"/><path d="m107.15625 467.597656c71.113281 17.875 143.117188-25.519531 160.59375-96.640625 13.546875-55.113281-22.847656-106.300781-30.226562-160.644531-3.003907-22.097656-19.648438-39.898438-41.304688-45.21875-8.707031-2.140625-17.894531-4.398438-26.59375-6.535156-21.511719-5.285156-44.363281 2.765625-57.097656 20.890625-33.550782 47.738281-93.550782 72.832031-103.53125 138.761719-10.199219 67.382812 32.070312 132.769531 98.160156 149.386718zm0 0" fill="#ffc265"/><path d="m267.753906 370.957031c-14.15625 57.601563-64.070312 97.015625-120.324218 100.417969 46.074218-10.070312 84.769531-45.382812 96.785156-94.28125 13.085937-53.21875-22.054688-102.65625-29.195313-155.136719-2.890625-21.339843-18.960937-38.527343-39.882812-43.667969-8.402344-2.066406-17.277344-4.25-25.683594-6.308593-11.175781-2.742188-22.726563-1.765625-32.925781 2.457031 13.175781-14.5625 33.675781-20.640625 53.097656-15.878906 8.695312 2.132812 17.886719 4.390625 26.589844 6.535156 21.660156 5.320312 38.308594 23.117188 41.304687 45.214844 7.386719 54.347656 43.777344 105.53125 30.234375 160.648437zm0 0" fill="#ffb541"/><path d="m498.65625 136.960938c-7.4375-6.683594-17.175781-10.375-27.136719-10.375-.148437 0-.296875 0-.445312.003906-.734375-12.023438-6.648438-22.890625-16.523438-30.167969-16.003906-11.796875-38.664062-10.027344-52.699219 4.113281-14.410156 14.515625-15.765624 36.980469-3.257812 53.34375 0 0 .003906.089844-.066406.171875l-50.59375 53.488281c-16.351563-7.410156-35.453125-7.589843-51.796875.335938-15.1875 7.367188-31.933594 12.015625-48.488281 16.175781-1.113282-4.921875-2.042969-9.839843-2.707032-14.746093-2.308594-16.996094-11.945312-32.082032-25.773437-41.828126l18.566406-72.414062c.019531-.09375.085937-.132812.082031-.136719 20.195313 1.101563 38.261719-13.054687 42.058594-32.960937 4.035156-21.152344-9.785156-42.28125-30.808594-47.101563-9.894531-2.269531-20.363281-.691406-29.152344 4.316407-6.476562-10.15625-16.921874-16.789063-29.082031-18.359376-16.285156-2.097656-32.605469 6.21875-40.609375 20.707032-2 3.621094-.683594 8.171875 2.933594 10.171875 3.621094 2.003906 8.171875.6875 10.171875-2.929688 5.058594-9.160156 15.351563-14.425781 25.585937-13.101562 8.339844 1.078125 15.402344 5.90625 19.367188 13.246093 1.601562 2.964844 4.402344 5.132813 7.683594 5.949219 3.355468.832031 6.945312.199219 9.84375-1.738281 5.917968-3.953125 12.992187-5.257812 19.914062-3.667969 13.265625 3.039063 21.992188 16.363281 19.445313 29.703125-2.398438 12.570313-13.847657 21.503906-26.53125 20.816406-7.214844-.390624-13.707031 4.441407-15.425781 11.441407l-17.632813 68.792969c-2.453125-.945313-4.980469-1.753907-7.574219-2.390626l-26.59375-6.53125c-1.523437-.375-3.054687-.6875-4.585937-.945312l17.523437-68.363281c1.765625-7.175781-1.808594-14.507813-8.496094-17.4375-5.238281-2.292969-9.472656-5.976563-12.246093-10.65625-2.109375-3.554688-6.699219-4.730469-10.257813-2.621094-3.554687 2.105469-4.730468 6.695313-2.625 10.253906 4.382813 7.394531 10.996094 13.183594 19.0625 16.691407 0 .003906.050782.078124.042969.121093l-18.300781 71.378907c-17.894532 1.460937-34.679688 10.570312-45.125 25.429687-11.320313 16.113281-26.289063 30.019531-40.769532 43.46875-28.105468 26.109375-57.167968 53.109375-64.035156 98.480469-5.222656 34.507812 2.449219 69.648437 21.605469 98.945312 19.261719 29.457032 48.429687 50.34375 82.132813 58.816406 11.378906 2.863282 22.890624 4.277344 34.324218 4.277344 6.640625 0 13.25-.492187 19.796875-1.441406 24.507813 19.164062 54.367188 29.492188 85.695313 29.492188 1.667968 0 3.347656-.027344 5.027344-.089844 37.421874-1.3125 72.054687-17.160156 97.511718-44.617188 8.074219-8.707031 14.632813-18.574218 20.046875-30.167968 1.75-3.746094.132813-8.199219-3.613281-9.949219s-8.199219-.132813-9.949219 3.613281c-4.75 10.160156-10.460937 18.773438-17.464843 26.324219-22.726563 24.515625-53.644532 38.660156-87.054688 39.835937-25.214844.886719-49.519531-5.710937-70.414062-18.820312 11.140624-3.335938 21.941406-8.082032 32.171874-14.238282 32.085938-19.308593 54.675782-49.96875 63.609376-86.332031 9.058593-36.859375-2.820313-71.75-14.3125-105.492187-3.21875-9.449219-6.488282-19.054688-9.285157-28.710938 17.261719-4.335937 34.800781-9.214844 51.25-17.191406 16.828125-8.167969 37.613281-4.871094 51.707031 8.195312l20.082032 18.617188c14.195312 13.160156 19.132812 33.804688 12.285156 51.375-7.628906 19.570312-11.4375 40.679688-15.117188 61.09375-2.015624 11.175781-4.097656 22.734375-6.765624 33.660156-.980469 4.019532 1.476562 8.070313 5.496093 9.046875 4.019531.980469 8.066407-1.480469 9.046875-5.496093 2.777344-11.371094 4.902344-23.15625 6.957032-34.550782 3.554687-19.714844 7.230468-40.097656 14.332031-58.316406 6.226562-15.980469 5.125-33.851562-2.234375-49.082031l51.371094-54.308594c.0625-.070313.136718-.074219.136718-.082031 17.101563 10.769531 39.789063 7.15625 52.769532-8.410156 13.792968-16.53125 11.960937-41.710938-4.085938-56.125zm-238.175781 232.210937c-7.976563 32.464844-28.144531 59.835937-56.789063 77.074219-28.644531 17.238281-62.277344 22.242187-94.710937 14.089844-30.039063-7.550782-56.054688-26.195313-73.246094-52.492188-17.140625-26.210938-24.007813-57.644531-19.335937-88.511719 6.085937-40.203125 31.992187-64.269531 59.425781-89.75 15.042969-13.976562 30.597656-28.425781 42.828125-45.828125 8.59375-12.234375 22.945312-19.292968 37.890625-19.292968 3.753906 0 7.546875.445312 11.292969 1.367187l26.59375 6.53125c18.800781 4.621094 33.136718 20.277344 35.671874 38.960937 2.828126 20.8125 9.742188 41.117188 16.433594 60.753907 11.292969 33.164062 21.960938 64.488281 13.945313 97.097656zm230.761719-185.667969c-8.199219 9.828125-22.511719 12.121094-33.300782 5.328125-6.113281-3.847656-14.140625-2.765625-19.039062 2.519531l-48.804688 51.59375c-1.683594-2.015624-3.5-3.949218-5.457031-5.761718l-20.085937-18.617188c-1.148438-1.070312-2.335938-2.085937-3.550782-3.054687l48.445313-51.214844c.015625-.019531.03125-.035156.050781-.054687 5.023438-5.417969 5.457031-13.566407 1.03125-19.367188-8.085938-10.597656-7.285156-24.492188 1.945312-33.789062 8.847657-8.914063 23.117188-10.035157 33.195313-2.609376 6.769531 4.992188 10.601563 12.636719 10.507813 20.980469-.035157 3.371094 1.359374 6.625 3.832031 8.929688 2.53125 2.351562 5.972656 3.542969 9.449219 3.257812 7.09375-.589843 13.910156 1.710938 19.191406 6.453125 10.125 9.097656 11.285156 24.980469 2.589844 35.40625zm0 0"/></svg>