<svg height="512" viewBox="0 0 64 64" width="512" xmlns="http://www.w3.org/2000/svg"><path d="m42 61a1 1 0 0 1 -1-1v-5a1 1 0 0 1 2 0v5a1 1 0 0 1 -1 1z" fill="#bf38a7"/><path d="m36 60a.93.93 0 0 1 -.45-.11 1 1 0 0 1 -.44-1.34l2.18-4.37a1 1 0 1 1 1.79.89l-2.19 4.38a1 1 0 0 1 -.89.55z" fill="#bf38a7"/><path d="m47 59a1 1 0 0 1 -1-.68l-1.13-3.4a1 1 0 1 1 1.9-.63l1.23 3.39a1 1 0 0 1 -.68 1.32 1.25 1.25 0 0 1 -.32 0z" fill="#bf38a7"/><path d="m49 4v-1h-14v1a33.62 33.62 0 0 1 -7.79 21.08 19 19 0 1 0 29.29-.36 32 32 0 0 1 -7.5-20.72z" fill="#d988ca"/><path d="m47.8 51.88a19 19 0 0 1 -12.59-30.79c4.23-5.23 3.97-11.47 3.79-18.09h-4v1a33.62 33.62 0 0 1 -7.79 21.08 19 19 0 0 0 27 26.43 19.19 19.19 0 0 1 -6.41.37z" fill="#bf38a7"/><path d="m51.55 24.73a43.07 43.07 0 0 1 -4.94-20.73v-1h-.93v1a52 52 0 0 0 4 20.71c1.43 3.29 4.32 7.61 4.32 12.29 0 10.5-6.23 19-12 19 7.19 0 15-8.5 15-19 0-4.68-3.6-9-5.45-12.27z" fill="#bf38a7"/><path d="m40.84 55.88c-4.62-1-10.34-8.16-10.79-17-.27-5.26 2.59-10.12 4.17-13.83a54.73 54.73 0 0 0 4.1-21.05v-1h-.94v1a45.24 45.24 0 0 1 -5.13 21.08c-2 3.71-5.55 8.57-5.21 13.83.57 8.8 7.72 16 13.51 17a8.54 8.54 0 0 0 1.45.09 5.52 5.52 0 0 1 -1.16-.12z" fill="#bf38a7"/><path d="m41.65 55.88c-1.38-1-4.5-8.16-4.64-17-.08-5.26 2.18-10.12 2.65-13.83a170.62 170.62 0 0 0 1.23-21.05v-1h-.66v1a107.77 107.77 0 0 1 -2 21.08c-.73 3.72-4.35 8.58-4.23 13.84.22 8.8 5.21 16 7.43 17a1.39 1.39 0 0 0 .57.08.6.6 0 0 1 -.35-.12z" fill="#bf38a7"/><path d="m45.66 24.73a103 103 0 0 1 -1.89-20.73v-1h-.66v1a164.15 164.15 0 0 0 1.18 20.71c.44 3.29 2.71 7.61 2.71 12.29 0 10.51-3.1 19-5 19 3 0 8-8.48 8-19 0-4.68-3.63-9-4.34-12.27z" fill="#bf38a7"/><path d="m42.17 56h.1a13.17 13.17 0 0 0 8.51-4 17.24 17.24 0 0 1 -1.78 0c-2 2.43-4.46 3.93-6.83 4z" fill="#7f256f"/><path d="m30.05 38.92a17.49 17.49 0 0 1 1-6.29 18.82 18.82 0 0 1 4.19-11.54c.3-.38.58-.76.84-1.15a56.4 56.4 0 0 0 2.24-15.94v-1h-.94v1a45.24 45.24 0 0 1 -5.13 21.08c-2 3.71-5.55 8.57-5.21 13.83.57 8.8 7.72 16 13.51 17l.66.08h.29.41a6.61 6.61 0 0 1 -1.08-.12c-4.61-.98-10.33-8.15-10.78-16.95z" fill="#7f256f"/><path d="m38.16 47.83a19.16 19.16 0 0 1 -3.42-3.55c1.5 6.21 4.95 10.82 6.7 11.6a1.35 1.35 0 0 0 .56.12.59.59 0 0 1 -.33-.11c-.89-.63-2.44-3.69-3.51-8.06z" fill="#7f256f"/><path d="m46.52 51.67a14.43 14.43 0 0 1 -1.58-.36c-.94 2.88-2.04 4.69-2.89 4.69 1.34 0 3.01-1.65 4.47-4.33z" fill="#7f256f"/><circle cx="20" cy="44" fill="#ffe2dd" r="17"/><path d="m26 54a17 17 0 0 1 -15.4-24.16 17 17 0 1 0 24.8 21.32 16.91 16.91 0 0 1 -9.4 2.84z" fill="#d988ca"/><path d="m20 55a13 13 0 0 1 -12.95-12v1a13 13 0 0 0 26 0c0-.34 0-.67 0-1a13 13 0 0 1 -13.05 12z" fill="#d988ca"/><path d="m23 35.53a9 9 0 0 1 -5 16.47 8.88 8.88 0 0 1 -3-.53 9 9 0 1 0 8-15.94z" fill="#d988ca"/><path d="m22 47a5 5 0 0 1 -5-5 4.87 4.87 0 0 1 .63-2.37 5 5 0 1 0 6.74 6.74 4.87 4.87 0 0 1 -2.37.63z" fill="#d988ca"/><g fill="#bf38a7"><path d="m7.05 43v1a13 13 0 0 0 21.51 9.81 16 16 0 0 1 -2.56.19c-.31 0-.61 0-.91 0a13 13 0 0 1 -18-11z"/><path d="m15 51.47a8.91 8.91 0 0 0 5 1.53h.26a16.82 16.82 0 0 1 -2.26-1 8.88 8.88 0 0 1 -3-.53z"/><path d="m20 54a10 10 0 1 1 10-10 1 1 0 0 1 -2 0 8 8 0 1 0 -2.34 5.66 1 1 0 1 1 1.41 1.41 9.93 9.93 0 0 1 -7.07 2.93z"/><path d="m20 50a6 6 0 0 1 -6-6 1 1 0 0 1 2 0 4 4 0 1 0 4-4 1 1 0 0 1 0-2 6 6 0 0 1 0 12z"/><path d="m7.88 49.69a1 1 0 0 1 -.88-.64 14 14 0 0 1 10.9-18.87 1 1 0 0 1 .3 2 11.92 11.92 0 0 0 -10.2 11.82 11.75 11.75 0 0 0 .82 4.32 1 1 0 0 1 -.57 1.3 1.21 1.21 0 0 1 -.37.07z"/><path d="m20 58a14 14 0 0 1 -10.9-5.22 1 1 0 1 1 1.56-1.26 12 12 0 1 0 11.19-19.36 1 1 0 0 1 .3-2 14 14 0 0 1 -2.15 27.84z"/></g><path d="m20 54a10.09 10.09 0 0 0 2.58-.34 16.79 16.79 0 0 1 -5.58-2.24 8 8 0 0 1 -3.88-3.32 16.63 16.63 0 0 1 -3.08-5.22 10.36 10.36 0 0 0 -.04 1.12 10 10 0 0 0 10 10z" fill="#7f256f"/><path d="m7 49.05a1 1 0 0 0 .93.64 1.21 1.21 0 0 0 .37-.07 1 1 0 0 0 .57-1.3 11.75 11.75 0 0 1 -.87-4.32 11.94 11.94 0 0 1 1.12-5.07 15.51 15.51 0 0 1 -.12-1.93 17.77 17.77 0 0 1 .1-1.8 14 14 0 0 0 -2.1 13.85z" fill="#7f256f"/><path d="m10.66 51.52a1 1 0 1 0 -1.56 1.26 14 14 0 0 0 21.21.65 16.84 16.84 0 0 1 -3.65.55 12 12 0 0 1 -16-2.46z" fill="#7f256f"/></svg>