<?xml version="1.0" encoding="iso-8859-1"?>
<!-- Generator: Adobe Illustrator 19.0.0, SVG Export Plug-In . SVG Version: 6.00 Build 0)  -->
<svg version="1.1" id="Layer_1" xmlns="http://www.w3.org/2000/svg" xmlns:xlink="http://www.w3.org/1999/xlink" x="0px" y="0px"
	 viewBox="0 0 512 512" style="enable-background:new 0 0 512 512;" xml:space="preserve">
<path style="fill:#B3404A;" d="M270.68,117.164c-3.855,0-7.711-1.472-10.652-4.412c-5.883-5.883-5.883-15.421,0-21.305
	c48.522-48.52,124.001-51.993,168.26-7.735c5.883,5.883,5.883,15.421,0,21.305c-5.883,5.884-15.421,5.883-21.305,0
	c-32.509-32.51-88.876-29.041-125.651,7.735C278.391,115.693,274.535,117.164,270.68,117.164z"/>
<path style="fill:#F4B2B0;" d="M151.078,414.617c-0.682-0.684-1.386-1.335-2.098-1.967l74.452-74.45
	c-11.14-4.787-21.2-11.34-29.744-19.883c-8.543-8.543-15.096-18.604-19.883-29.744l-74.45,74.452
	c-0.634-0.713-1.285-1.416-1.967-2.098c-18.832-18.832-49.364-18.832-68.196,0c-18.832,18.832-18.832,49.364,0,68.196
	c10.903,10.904,25.73,15.48,39.937,13.757c-1.723,14.207,2.853,29.033,13.757,39.937c18.832,18.832,49.364,18.832,68.196,0
	C169.909,463.981,169.909,433.449,151.078,414.617z"/>
<path style="fill:#B3404A;" d="M465.571,46.429c-64.815-64.814-173.745-61.342-242.825,7.735
	c-33.676,33.676-59.794,84.56-69.866,136.113c-6.969,35.666-5.702,67.872,3.322,94.588l-57.609,57.609
	c-10.351-6.987-22.541-10.741-35.306-10.741c-16.905,0-32.796,6.583-44.751,18.537C6.583,362.224,0,378.117,0,395.02
	c0,16.905,6.583,32.796,18.535,44.75c9.807,9.808,22.275,15.998,35.779,17.899c1.886,13.421,8.062,25.942,17.914,35.796
	C84.182,505.418,100.075,512,116.98,512c16.904,0,32.796-6.583,44.75-18.535c11.953-11.953,18.537-27.845,18.537-44.75
	c0-12.767-3.754-24.955-10.741-35.308l64.282-64.281c0.06-0.057,0.118-0.119,0.176-0.176l0.099-0.099
	c0.029-0.029,0.051-0.062,0.08-0.09c0.362-0.368,0.702-0.755,1.027-1.161c0.084-0.105,0.166-0.212,0.247-0.319
	c0.261-0.346,0.508-0.707,0.74-1.08c0.086-0.137,0.175-0.271,0.256-0.41c0.212-0.365,0.405-0.744,0.588-1.133
	c0.066-0.14,0.142-0.274,0.203-0.416c0.012-0.027,0.027-0.053,0.039-0.081c0.211-0.491,0.392-0.988,0.548-1.488
	c0.039-0.124,0.063-0.252,0.098-0.377c0.119-0.42,0.224-0.841,0.306-1.262c0.038-0.194,0.062-0.389,0.09-0.584
	c0.054-0.363,0.099-0.725,0.127-1.088c0.017-0.217,0.029-0.434,0.036-0.651c0.012-0.351,0.008-0.7-0.006-1.05
	c-0.008-0.22-0.011-0.44-0.029-0.66c-0.035-0.42-0.092-0.836-0.161-1.249c-0.021-0.131-0.026-0.262-0.051-0.393
	c-0.039-0.203-0.105-0.395-0.154-0.595c-0.072-0.303-0.142-0.607-0.232-0.904c-0.086-0.288-0.188-0.566-0.292-0.847
	c-0.083-0.227-0.17-0.452-0.265-0.673c-0.122-0.288-0.247-0.569-0.386-0.848c-0.101-0.202-0.212-0.399-0.322-0.597
	c-0.154-0.277-0.303-0.557-0.475-0.824c-0.083-0.13-0.181-0.25-0.267-0.377c-0.357-0.521-0.747-1.017-1.166-1.488
	c-0.161-0.182-0.321-0.366-0.491-0.541c-0.214-0.218-0.44-0.425-0.667-0.631c-0.176-0.16-0.355-0.316-0.541-0.467
	c-0.247-0.202-0.497-0.398-0.758-0.584c-0.173-0.124-0.354-0.24-0.533-0.357c-0.292-0.191-0.581-0.383-0.889-0.554
	c-0.092-0.051-0.191-0.095-0.285-0.145c-0.369-0.197-0.735-0.401-1.122-0.566c-8.496-3.652-16.009-8.409-22.379-14.166
	c-0.91-0.823-1.797-1.666-2.66-2.531c-0.113-0.113-0.22-0.233-0.331-0.348c-0.71-0.719-1.408-1.448-2.089-2.198
	c-0.28-0.309-0.547-0.631-0.823-0.945c-0.502-0.572-1.005-1.145-1.491-1.735c-0.31-0.377-0.607-0.764-0.91-1.145
	c-0.428-0.541-0.856-1.082-1.27-1.636c-0.327-0.437-0.643-0.883-0.961-1.327c-0.365-0.508-0.726-1.018-1.079-1.538
	c-0.343-0.505-0.678-1.017-1.009-1.531c-0.298-0.461-0.592-0.925-0.883-1.393c-0.363-0.587-0.72-1.18-1.068-1.778
	c-0.224-0.384-0.443-0.773-0.661-1.161c-0.39-0.696-0.777-1.393-1.149-2.103c-0.131-0.25-0.258-0.505-0.386-0.756
	c-29.559-57.762,0.612-159.387,53.823-212.598c57.331-57.334,147.149-60.804,200.216-7.735
	c53.067,53.067,49.596,142.883-7.737,200.216c-27.867,27.869-70.469,50.375-113.958,60.204c-8.115,1.835-13.207,9.9-11.372,18.014
	c1.582,6.997,7.796,11.747,14.68,11.746c1.1,0,2.217-0.121,3.335-0.374c48.811-11.033,96.893-36.561,128.62-68.288
	C526.914,220.174,530.384,111.245,465.571,46.429z M138.327,401.997c-2.933,2.933-4.527,6.946-4.406,11.092
	s1.946,8.059,5.045,10.816c0.496,0.44,0.985,0.89,1.46,1.365c6.264,6.264,9.712,14.59,9.712,23.446s-3.448,17.184-9.71,23.444
	c-6.264,6.264-14.59,9.712-23.446,9.712c-8.856,0-17.184-3.448-23.446-9.71c-6.115-6.115-9.51-14.198-9.682-22.708l22.468-22.468
	c5.883-5.883,5.883-15.421,0-21.305c-5.883-5.881-15.421-5.881-21.305,0l-22.45,22.45c-8.59-0.179-16.638-3.578-22.726-9.665
	c-6.264-6.261-9.712-14.588-9.712-23.444s3.448-17.182,9.712-23.444c6.262-6.264,14.59-9.712,23.446-9.712s17.182,3.45,23.45,9.718
	c0.472,0.47,0.917,0.957,1.353,1.448c2.757,3.102,6.669,4.929,10.818,5.051c4.134,0.133,8.162-1.472,11.096-4.405l60.227-60.228
	c1.817,2.677,3.754,5.253,5.792,7.743c0.185,0.227,0.371,0.453,0.557,0.678c0.81,0.973,1.639,1.931,2.484,2.874
	c0.25,0.28,0.496,0.565,0.749,0.842c1.027,1.124,2.074,2.229,3.151,3.308c0.024,0.024,0.047,0.051,0.071,0.075
	c1.189,1.189,2.409,2.349,3.658,3.481c0.655,0.595,1.339,1.16,2.011,1.738c0.601,0.518,1.19,1.05,1.805,1.555
	c0.943,0.776,1.918,1.52,2.891,2.266c0.363,0.279,0.714,0.569,1.082,0.844c1.142,0.853,2.315,1.672,3.496,2.483
	c0.2,0.137,0.392,0.285,0.594,0.422L138.327,401.997z"/>
<g>
</g>
<g>
</g>
<g>
</g>
<g>
</g>
<g>
</g>
<g>
</g>
<g>
</g>
<g>
</g>
<g>
</g>
<g>
</g>
<g>
</g>
<g>
</g>
<g>
</g>
<g>
</g>
<g>
</g>
</svg>
