<svg id="Capa_1" enable-background="new 0 0 512 512" height="512" viewBox="0 0 512 512" width="512" xmlns="http://www.w3.org/2000/svg"><ellipse cx="293.495" cy="283.034" fill="#ff4755" rx="210.505" ry="171.913"/><path d="m293.495 111.121c-3.016 0-6.014.064-9 .167 112.082 3.852 201.505 79.265 201.505 171.746s-89.423 167.895-201.505 171.746c2.986.103 5.984.167 9 .167 116.259 0 210.505-76.968 210.505-171.913s-94.246-171.913-210.505-171.913z" fill="#fc2b3a"/><path d="m286.665 175.451c21.015-1.295 74.877 33.412 87.132 24.221s-38.296-37.53-38.296-48.253 80.421-9.191 82.719-19.914-52.428-18.707-96.851-20.239 9.505-50.082-14.206-54.055c-29.592-4.958-52.278 53.982-72.671 58.252-19.414 4.064-76.952 2.616-85.705 23.562-7.684 18.387 65.701 6.267 73.36 20.053s-32.797 42.921-22.972 54.692c14.642 17.541 61.701-36.73 87.49-38.319z" fill="#98db7c"/><g fill="#82d361"><path d="m220.77 141.079c-5.54-9.972-45.46-6.392-64.223-10.605-3.624 2.34-6.34 5.149-7.762 8.551-6.912 16.54 51.764 8.398 69.201 16.629 3.281-5.589 4.942-10.691 2.784-14.575z"/><path d="m398.709 120.387c-24.366 3.994-64.583 5.449-64.583 13.032 0 3.094 4.213 7.657 9.909 12.802 20.76-5.406 72.352-6.158 74.185-14.716.9-4.2-6.954-7.981-19.511-11.118z"/><path d="m367.085 183.213c-18.174.57-63.051-26.916-81.795-25.761-23.808 1.467-65.743 47.831-83.566 41.143-3.769 6.093-5.629 11.488-2.55 15.176 14.643 17.541 61.702-36.731 87.491-38.319 21.015-1.295 74.877 33.412 87.132 24.221 4.591-3.444.366-9.575-6.712-16.46z"/></g><path d="m8.039 306.919s-6.672 148.165 154.4 148.165h3.812c161.072 0 154.4-148.165 154.4-148.165z" fill="#ff7b8b"/><path d="m319.802 306.919c-4.191 39.475-27.532 130.165-153.55 130.165h-3.812c-126.018 0-149.359-90.69-153.55-130.165h-.851s-6.672 148.165 154.4 148.165h3.812c161.072 0 154.4-148.165 154.4-148.165z" fill="#ff647e"/><path d="m161.024 370.744h-.683c-17.518 0-32.425-5.084-44.307-15.11-7.807-6.587-11.609-13.201-11.639-13.261-6.107-12.023-20.804-16.821-32.828-10.714s-16.82 20.805-10.714 32.828c1.143 2.25 28.794 55.093 99.489 55.093h.683-.818.682c70.695 0 98.346-52.843 99.489-55.093 6.106-12.024 1.31-26.722-10.714-32.828-12.024-6.107-26.722-1.31-32.829 10.714-.031.06-3.833 6.674-11.639 13.261-11.882 10.026-26.789 15.11-44.307 15.11h-.682" fill="#ff4755"/><path d="m260.377 346.488c-1.143 2.25-28.794 55.093-99.489 55.093h-.547c-70.695 0-98.346-52.843-99.489-55.093-.344-.677-.648-1.363-.923-2.054-2.488 6.281-2.377 13.557.923 20.054 1.143 2.25 28.794 55.093 99.489 55.093h.547c70.695 0 98.346-52.843 99.489-55.093 3.3-6.497 3.41-13.773.923-20.054-.275.691-.579 1.377-.923 2.054z" fill="#fc2b3a"/><path d="m159.984 427.421h.04.82.04c75.252-.09 104.977-56.891 106.207-59.311 3.868-7.616 4.539-16.283 1.888-24.404-2.65-8.121-8.304-14.723-15.92-18.591-15.661-7.957-34.86-1.74-42.879 13.803-.487.796-3.792 6-9.925 11.175-10.512 8.87-23.818 13.368-39.547 13.368h-.548c-15.729 0-29.035-4.498-39.547-13.369-6.142-5.182-9.445-10.389-9.925-11.175-3.883-7.5-10.435-13.067-18.474-15.692-8.122-2.65-16.789-1.979-24.404 1.888-7.616 3.869-13.27 10.47-15.921 18.592-2.65 8.121-1.979 16.787 1.889 24.403 1.227 2.42 30.942 59.223 106.206 59.313zm-93.808-79.052c1.405-4.305 4.402-7.804 8.439-9.855 8.251-4.191 18.611-.787 22.79 7.439.038.074 4.33 7.876 13.514 15.626 13.255 11.185 29.757 16.874 49.051 16.911h.053.82.053c19.294-.037 35.796-5.726 49.051-16.911 9.237-7.793 13.454-15.508 13.516-15.627 4.233-8.335 14.458-11.672 22.79-7.437 8.229 4.179 11.627 14.541 7.438 22.787-1.06 2.086-26.717 51.089-92.983 51.089h-.548c-66.277 0-91.923-49.001-92.982-51.088-2.052-4.036-2.407-8.63-1.002-12.934z"/><path d="m160.423 409.186c6.061 0 10.991-4.93 10.991-10.991 0-3.98-2.605-14.908-10.991-14.908s-10.991 10.927-10.991 14.908c0 6.061 4.931 10.991 10.991 10.991z"/><path d="m99.048 387.259c2.814 0 5.628-1.071 7.77-3.212.001-.001.002-.002.002-.002 1.684-1.685 3.157-4.278 3.973-6.144 2.905-6.637.492-10.473-1.203-12.168-5.927-5.93-15.498-.046-18.315 2.769-4.284 4.286-4.284 11.257.002 15.545 2.143 2.14 4.957 3.212 7.771 3.212z"/><path d="m213.226 384.045c.001 0 .001.001.002.002 2.142 2.141 4.955 3.211 7.77 3.211s5.63-1.071 7.773-3.213c4.284-4.286 4.284-11.257-.002-15.545-2.815-2.813-12.383-8.697-18.311-2.769-1.697 1.697-4.11 5.533-1.205 12.17.817 1.866 2.289 4.459 3.973 6.144z"/><path d="m483.526 194.246c-15.167-21.929-35.948-41.073-60.622-56.02 4.047-3.928 4.128-10.203.725-14.563-3.208-4.113-10.699-9.462-40.394-14.375-17.89-2.959-40.297-5.075-61.477-5.805-6.565-.227-9.745-1.614-10.531-2.836-1.885-2.929 2.137-12.631 4.54-18.427 3.934-9.492 7.651-18.457 3.601-25.767-1.451-2.621-4.515-5.969-10.861-7.031-21.698-3.648-38.282 17.36-52.917 35.882-7.894 9.992-16.842 21.317-22.677 22.539-4.47.935-11.519 1.587-19.682 2.34-28.191 2.605-63.275 5.845-71.583 25.725-2.28 5.455-.923 11.403 3.716 15.121-44.801 33.995-70.22 81.436-70.22 132.065 0 5.446.311 10.94.917 16.417h-68.5c-4.019 0-7.326 3.161-7.507 7.176-.093 2.055-1.936 50.804 26.771 93.727 2.307 3.451 6.974 4.376 10.424 2.069s4.376-6.974 2.069-10.424c-19.774-29.566-23.499-63.121-24.148-77.519h298.012c-.749 17.04-5.814 60.932-36.978 93.531-25.306 26.471-62.357 39.893-110.123 39.893h-3.819c-44.333 0-79.508-11.59-104.549-34.447-3.065-2.798-7.817-2.58-10.616.483-2.798 3.065-2.581 7.819.484 10.616 27.897 25.464 66.482 38.376 114.681 38.376h3.819c22.673 0 43.195-2.848 61.474-8.505 21.307 5.547 43.503 8.368 66.017 8.368 51.458 0 101.421-14.989 140.686-42.206 3.411-2.364 4.26-7.046 1.895-10.457-2.364-3.411-7.047-4.26-10.457-1.895-36.775 25.491-83.698 39.529-132.125 39.529-13.952 0-27.768-1.148-41.298-3.414 13.133-6.804 24.753-15.455 34.792-25.957 43.672-45.682 41.342-109.092 41.221-111.77-.181-4.015-3.488-7.176-7.507-7.176h-229.588c-.673-5.474-1.018-10.973-1.018-16.417 0-48.968 26.561-94.862 72.957-126.322 5.832.737 12.733 1.148 20.73 1.556 9.835.501 27.978 1.426 31.676 4.358.042.466-.023 2.127-2.105 5.926-2.264 4.131-5.919 8.962-9.454 13.633-9.127 12.061-19.472 25.732-10.678 36.266 3.723 4.461 8.387 6.15 13.368 6.149 11.098-.001 23.757-8.391 31.006-13.197 3.459-2.292 4.404-6.956 2.111-10.415-2.292-3.459-6.955-4.407-10.415-2.112-18.105 12.001-23.023 11.281-24.348 10.13.013-3.31 7.093-12.666 10.942-17.752 9.278-12.261 18.873-24.94 12.691-36.066-5.538-9.969-22.524-10.834-44.028-11.93-8.827-.449-22.904-1.166-28.245-3.146 2.109-2.949 7.354-6.623 19.811-9.668 11.872-2.902 25.978-4.205 38.422-5.355 8.622-.797 16.068-1.484 21.379-2.596 11.17-2.338 20.54-14.198 31.39-27.931 12.052-15.254 25.701-32.55 38.641-30.378.019.004.037.007.055.01-.265 2.73-2.681 8.559-4.195 12.211-4.424 10.672-9.438 22.768-3.295 32.315 3.959 6.154 11.369 9.334 22.652 9.723 39.177 1.351 70.394 6.601 83.869 11.154-8.142 1.693-20.753 3.113-29.34 4.081-10.245 1.155-20.839 2.348-28.823 3.951-6.103 1.225-18.801 3.775-18.801 13.535 0 7.678 7.735 14.605 21.407 26.188 5.06 4.287 13.629 11.547 17.265 16.138-1.934-.172-5.022-.735-9.8-2.245-7.34-2.319-16.34-6.104-25.044-9.764-17.657-7.426-34.336-14.457-45.705-13.739-10.437.642-22.289 7.629-32.506 14.379-3.463 2.288-4.415 6.949-2.128 10.412s6.949 4.416 10.412 2.128c7.431-4.91 18.123-11.487 25.146-11.92 7.847-.475 24.379 6.462 38.955 12.593 26.21 11.021 42.762 17.411 52.393 10.187 3.87-2.902 5.634-7.95 4.573-12.647-1.179-5.217-4.871-9.41-8.484-13.154-4.344-4.502-9.945-9.247-15.361-13.835-4.17-3.533-10.418-8.826-13.855-12.519 7.346-1.971 22.333-3.66 32.04-4.752 11.086-1.249 20.037-2.309 27.098-3.584 57.915 30.616 92.421 82.027 92.421 138.005 0 39.082-17.232 76.987-48.522 106.734-2.73 2.595-3.097 6.962-.824 9.97 2.668 3.531 7.971 3.972 11.179.922 34.302-32.611 53.194-74.384 53.194-117.624 0-31.194-9.846-61.918-28.474-88.849z"/></svg>