<svg width="512.001" height="512" xmlns="http://www.w3.org/2000/svg">

 <g>
  <title>background</title>
  <rect fill="none" id="canvas_background" height="402" width="582" y="-1" x="-1"/>
 </g>
 <g>
  <title>Layer 1</title>
  <path id="svg_1" fill="#ff8000" d="m460.438,409.063969l-408.875,0c-28.47656,0 -51.5625,-23.08203 -51.5625,-51.5586c0,-140.15234 113.28906,-254.17187 253.44141,-254.5664c1.70703,-0.00391 3.41015,-0.00391 5.11718,0c140.15235,0.39453 253.44141,114.41406 253.44141,254.5625c0,28.48047 -23.08594,51.5625 -51.5625,51.5625zm0,0"/>
  <path id="svg_2" fill="#e37100" d="m258.55859,102.938969c-1.70703,-0.00391 -3.41015,-0.00391 -5.11718,0c-10.8711,0.03125 -21.58203,0.75 -32.08985,2.10547c124.95703,16.13671 221.35157,123.17968 221.35157,252.46093c0,28.47657 -23.08594,51.5586 -51.5586,51.5586l69.29297,0c28.47656,0 51.5625,-23.08203 51.5625,-51.5586c0,-140.15234 -113.28906,-254.17187 -253.44141,-254.5664zm0,0"/>
  <g id="svg_5" fill="#a64f3b">
   <path id="svg_6" d="m400.225108,291.373051l0,-20.11328c0,-4.26954 -3.45703,-7.72657 -7.72656,-7.72657c-4.26563,0 -7.72656,3.46094 -7.72656,7.72657l0,20.11328c0,4.26953 3.46093,7.72656 7.72656,7.72656c4.26953,0 7.72656,-3.45703 7.72656,-7.72656zm0,0"/>
   <path id="svg_7" d="m345.627458,291.373051l0,-20.11328c0,-4.26954 -3.46094,-7.72657 -7.72657,-7.72657c-4.26953,0 -7.72656,3.46094 -7.72656,7.72657l0,20.11328c0,4.26953 3.45703,7.72656 7.72656,7.72656c4.26563,0 7.72657,-3.45703 7.72657,-7.72656zm0,0"/>
   <path id="svg_8" d="m291.025888,291.373051l0,-20.11328c0,-4.26954 -3.45703,-7.72657 -7.72656,-7.72657c-4.26562,0 -7.72266,3.46094 -7.72266,7.72657l0,20.11328c0,4.26953 3.45704,7.72656 7.72266,7.72656c4.26953,0 7.72656,-3.45703 7.72656,-7.72656zm0,0"/>
   <path id="svg_9" d="m236.428238,291.373051l0,-20.11328c0,-4.26954 -3.46094,-7.72657 -7.72657,-7.72657c-4.26953,0 -7.72656,3.46094 -7.72656,7.72657l0,20.11328c0,4.26953 3.45703,7.72656 7.72656,7.72656c4.26563,0 7.72657,-3.45703 7.72657,-7.72656zm0,0"/>
   <path id="svg_10" d="m181.826668,291.373051l0,-20.11328c0,-4.26954 -3.45703,-7.72657 -7.72656,-7.72657c-4.26562,0 -7.72265,3.46094 -7.72265,7.72657l0,20.11328c0,4.26953 3.45703,7.72656 7.72265,7.72656c4.26953,0 7.72656,-3.45703 7.72656,-7.72656zm0,0"/>
   <path id="svg_11" d="m127.229018,291.373051l0,-20.11328c0,-4.26954 -3.46094,-7.72657 -7.72656,-7.72657c-4.26954,0 -7.72657,3.46094 -7.72657,7.72657l0,20.11328c0,4.26953 3.45703,7.72656 7.72657,7.72656c4.26562,0 7.72656,-3.45703 7.72656,-7.72656zm0,0"/>
   <path id="svg_12" d="m372.924328,240.740231l0,-20.11328c0,-4.26953 -3.45703,-7.72656 -7.72266,-7.72656c-4.26953,0 -7.72656,3.45703 -7.72656,7.72656l0,20.11328c0,4.26954 3.45703,7.72657 7.72656,7.72657c4.26563,0 7.72266,-3.46094 7.72266,-7.72657zm0,0"/>
   <path id="svg_13" d="m318.326668,240.740231l0,-20.11328c0,-4.26953 -3.45703,-7.72656 -7.72656,-7.72656c-4.26562,0 -7.72656,3.45703 -7.72656,7.72656l0,20.11328c0,4.26954 3.46094,7.72657 7.72656,7.72657s7.72656,-3.46094 7.72656,-7.72657zm0,0"/>
   <path id="svg_14" d="m263.725108,240.740231l0,-20.11328c0,-4.26953 -3.45703,-7.72656 -7.72265,-7.72656c-4.26954,0 -7.72657,3.45703 -7.72657,7.72656l0,20.11328c0,4.26954 3.45703,7.72657 7.72657,7.72657c4.26562,0 7.72265,-3.46094 7.72265,-7.72657zm0,0"/>
   <path id="svg_15" d="m209.127458,240.740231l0,-20.11328c0,-4.26953 -3.46094,-7.72656 -7.72657,-7.72656c-4.26562,0 -7.72656,3.45703 -7.72656,7.72656l0,20.11328c0,4.26954 3.46094,7.72657 7.72656,7.72657c4.26563,0 7.72657,-3.46094 7.72657,-7.72657zm0,0"/>
   <path id="svg_16" d="m154.525888,240.740231l0,-20.11328c0,-4.26953 -3.45703,-7.72656 -7.72265,-7.72656c-4.26953,0 -7.72657,3.45703 -7.72657,7.72656l0,20.11328c0,4.26954 3.45704,7.72657 7.72657,7.72657c4.26562,0 7.72265,-3.46094 7.72265,-7.72657zm0,0"/>
  </g>
 </g>
</svg>